<svg width="19" height="22" viewBox="0 0 19 22" fill="none" xmlns="http://www.w3.org/2000/svg">
<path d="M14.5406 10.0016C15.0612 15.378 17.1053 17.0028 17.1053 17.0028H1C1 17.0028 3.68421 14.8691 3.68421 7.40112C3.68421 5.70343 4.24981 4.07529 5.25659 2.87485C6.26336 1.6744 7.62884 1 9.05263 1C9.35443 1 9.65363 1.03031 9.94737 1.08951" stroke="black" stroke-width="2" stroke-linecap="round" stroke-linejoin="round"/>
<path d="M15.3158 7.00105C16.7983 7.00105 18 5.65766 18 4.00052C18 2.34339 16.7983 1 15.3158 1C13.8333 1 12.6316 2.34339 12.6316 4.00052C12.6316 5.65766 13.8333 7.00105 15.3158 7.00105Z" fill="#E10000"/>
<path d="M10.6005 20.0033C10.4433 20.3065 10.2175 20.5581 9.94578 20.733C9.67414 20.9079 9.36617 21 9.05266 21C8.73914 21 8.43117 20.9079 8.15953 20.733C7.88789 20.5581 7.66206 20.3065 7.50476 20.0033" stroke="black" stroke-width="2" stroke-linecap="round" stroke-linejoin="round"/>
</svg>
