<svg width="24" height="23" viewBox="0 0 24 23" fill="none" xmlns="http://www.w3.org/2000/svg">
<path d="M18.4633 23H5.53674C2.47814 23 0 20.6118 0 17.6775V9.74183C0 8.28532 0.937675 6.45402 2.14326 5.55444L8.16 1.05651C9.96837 -0.292861 12.8595 -0.357116 14.7349 0.906582L21.6335 5.54373C22.9619 6.43261 24 8.33887 24 9.89176V17.6882C24 20.6118 21.5219 23 18.4633 23ZM9.18698 2.32022L3.17023 6.81814C2.37767 7.41787 1.67442 8.77795 1.67442 9.74183V17.6775C1.67442 19.7229 3.40465 21.3936 5.53674 21.3936H18.4633C20.5954 21.3936 22.3256 19.7337 22.3256 17.6882V9.89176C22.3256 8.86363 21.5554 7.43928 20.6735 6.86098L13.7749 2.22383C12.5023 1.36708 10.4037 1.40992 9.18698 2.32022Z" fill="#916863"/>
<path d="M12.0001 18.7162C11.5424 18.7162 11.1628 18.3521 11.1628 17.913V14.7002C11.1628 14.2612 11.5424 13.897 12.0001 13.897C12.4577 13.897 12.8373 14.2612 12.8373 14.7002V17.913C12.8373 18.3521 12.4577 18.7162 12.0001 18.7162Z" fill="#916863"/>
</svg>
