<svg width="63" height="61" viewBox="0 0 63 61" fill="none" xmlns="http://www.w3.org/2000/svg">
<path d="M31.5 16C25.0375 16 19.75 22.3 19.75 30.0625C19.75 37.825 25.0375 44.125 31.5 44.125C37.9625 44.125 43.25 37.825 43.25 30.0625C43.25 22.3 37.9625 16 31.5 16ZM19.2212 44.125C12.9938 44.4062 8 49.3 8 55.375V61H55V55.375C55 49.3 50.065 44.4062 43.7788 44.125C40.6063 47.5562 36.2588 49.75 31.5 49.75C26.7412 49.75 22.3938 47.5562 19.2212 44.125Z" fill="#916863"/>
<rect x="0.5" y="0.5" width="62" height="60" rx="30" stroke="black"/>
</svg>
